<?xml version="1.0" encoding="utf-8"?>
<!-- Generator: Adobe Illustrator 15.0.0, SVG Export Plug-In . SVG Version: 6.00 Build 0)  -->
<!DOCTYPE svg PUBLIC "-//W3C//DTD SVG 1.1//EN" "http://www.w3.org/Graphics/SVG/1.1/DTD/svg11.dtd">
<svg version="1.1" xmlns="http://www.w3.org/2000/svg" xmlns:xlink="http://www.w3.org/1999/xlink" x="0px" y="0px" width="50px"
	 height="50px" viewBox="0 0 50 50" style="enable-background:new 0 0 50 50;" xml:space="preserve">
<style type="text/css">
<![CDATA[
	.st0{fill:none;stroke:#000000;stroke-width:0.5;stroke-linecap:round;stroke-linejoin:round;stroke-miterlimit:10;}
	
		.st1{display:inline;fill:none;stroke:#000000;stroke-width:0.75;stroke-linecap:round;stroke-linejoin:round;stroke-miterlimit:10;}
	.st2{display:inline;}
	.st3{display:none;}
]]>
</style>
<g id="Capa_1" class="st3">
	
		<image style="display:inline;overflow:visible;" width="500" height="205" xlink:href="bocetoiconosmenuprincipal.JPG"  transform="matrix(0.5988 0.0048 -0.0048 0.5988 -220.1587 -42.8496)">
	</image>
</g>
<g id="Capa_7" class="st3">
	<g class="st2">
		<path d="M29.745,45.249l-1.162-0.004C13.058,45.152,4.786,44.887,3.48,43.698C2.013,42.362,1,39.869,1,37.029V35.5
			c0-9.355,0.191-20.297,0.749-21.874c1.103-3.118,3.067-4.906,5.539-5.169c3.136-0.334,16.374-1.107,21.239-1.316
			c6.02-0.258,11.063-0.206,15.096-0.322s5.319,1.905,5.53,3.575c0.451,3.581,1.032,17.477,0.393,22.703l-0.135,1.098
			c-0.567,4.771-0.978,8.208-3.847,9.263C42.979,44.406,39.823,45.249,29.745,45.249z M28.607,8.14
			C23.875,8.343,10.515,9.213,7.469,9.538c-2.092,0.223-3.798,1.697-4.778,4.466C2.312,15.076,2,22.279,2,35.499v1.532
			c0,2.524,0.91,4.796,2.153,5.927c1.262,1.148,16.315,1.239,24.361,1.287l1.194,0.004c9.914,0,12.995-0.824,15.492-1.742
			c2.294-0.843,2.683-4.034,3.209-8.452l0.14-1.122c0.631-5.162,0.058-18.955-0.39-22.5c-0.236-1.875-3.081-2.635-4.537-2.613
			C43.016,7.828,34.609,7.882,28.607,8.14z"/>
	</g>
	<path class="st1" d="M2.426,15.922c0,0,21.589,14.401,22.574,14.991s0.886,0.982,2.163,0s21.173-18.638,21.173-18.638"/>
	<path class="st1" d="M31.572,26.896"/>
	<path class="st1" d="M44.452,37.54"/>
	<path class="st1" d="M20.579,28.015"/>
	<path class="st1" d="M10.758,36.46"/>
</g>
<g id="Capa_5">
	<g>
		<path d="M19.795,26.442c-1.913,0-3.737-1.577-4.945-2.62c-0.345-0.298-0.644-0.556-0.856-0.7c-0.575-0.39-0.665-0.259-1.167-0.154
			c-0.393,0.082-0.931,0.193-1.75,0.232c-0.121,0.006-0.243,0.009-0.367,0.009c-2.544,0-4.848-1.15-6.161-3.075
			C2.938,17.77,2.232,12.906,4.003,8.183c1.542-4.109,5.374-6.372,10.791-6.372c0.494,0,0.996,0.019,1.502,0.057
			c2.633,0.195,5.161,1.571,6.934,3.776c1.839,2.287,2.665,5.2,2.265,7.992c-0.613,4.279-3.648,5.754-5.278,6.546
			c-0.328,0.159-0.736,0.357-0.818,0.452c-0.086,0.394,0.025,1.263,0.474,2.005c0.237,0.393,0.658,0.894,1.314,1.048
			c1.047,0.247,1.361,0.853,1.304,1.338C22.394,25.873,21.31,26.442,19.795,26.442z M13.391,21.882c0.39,0,0.738,0.124,1.166,0.414
			c0.26,0.176,0.579,0.452,0.948,0.771c1.095,0.946,2.75,2.376,4.291,2.376c1.203,0,1.682-0.42,1.703-0.533
			c-0.011-0.017-0.139-0.154-0.541-0.249c-0.787-0.186-1.458-0.706-1.941-1.505c-0.539-0.892-0.76-2.038-0.55-2.852
			c0.113-0.439,0.565-0.659,1.313-1.022c1.566-0.761,4.188-2.035,4.725-5.789c0.361-2.519-0.388-5.151-2.054-7.223
			c-1.6-1.99-3.87-3.231-6.229-3.406c-0.481-0.036-0.958-0.054-1.428-0.054c-4.97,0-8.47,2.032-9.854,5.723
			c-1.652,4.403-1.031,8.885,0.436,11.036c1.126,1.652,3.121,2.639,5.334,2.639c0.108,0,0.214-0.003,0.319-0.008
			c0.742-0.035,1.215-0.133,1.596-0.212C12.903,21.932,13.144,21.882,13.391,21.882z"/>
	</g>
	<path class="st0" d="M39.877,33.56c0,0-0.136,1.61-2.948,2.527c-2.959,0.965-4.628,0.825-6.456,0.224"/>
	<path d="M37.478,28.693c-0.11-0.803-0.661-1.473-1.902-0.884s-0.527,1.572,0,1.67S37.566,29.34,37.478,28.693z"/>
	<path d="M29.478,28.693c-0.11-0.803-0.661-1.473-1.902-0.884s-0.527,1.572,0,1.67S29.566,29.34,29.478,28.693z"/>
	<g>
		<path d="M32.068,31.977c-0.182,0-0.374-0.045-0.571-0.136c-0.458-0.211-0.949-0.697-0.949-1.085c0-0.138,0.112-0.25,0.25-0.25
			s0.249,0.111,0.25,0.249c0.009,0.107,0.296,0.481,0.7,0.649c0.265,0.11,0.485,0.092,0.654-0.052
			c0.106-0.091,0.265-0.078,0.353,0.026c0.09,0.105,0.078,0.263-0.026,0.353C32.538,31.895,32.313,31.977,32.068,31.977z"/>
	</g>
	<path d="M29.287,32.524c0.131-0.078,0.286-0.208,0.417,0s0.416,0.521,0.769,0.756s1.63,0.809,3.168,0.521s2.164-0.781,2.398-1.017
		s0.313,0.104,0.313,0.234s-1.252,0.938-1.877,0.99c0,0-0.599,0.678-1.98,0.626s-1.382-0.626-1.382-0.626s-1.489-0.887-1.631-1.121
		S29.287,32.524,29.287,32.524z"/>
	<g>
		<path d="M42.291,49.036c-0.532,0-12.402-0.686-13.081-0.791c-0.445-0.064-1.226-0.178-1.706-0.951
			c-0.561-0.903-0.493-2.379,0.205-4.512c1.534-4.681,3.163-6.295,3.231-6.361c0.197-0.19,0.513-0.187,0.704,0.009
			c0.035,0.034,1.034,0.954,3.256,0.865c1.109-0.043,1.762-0.491,2.286-0.852c0.381-0.261,0.709-0.486,1.112-0.486
			c0.343,0,0.648,0.163,0.935,0.499c3.693,4.339,4.245,8.692,4.245,10.901C43.409,47.814,43.14,49.036,42.291,49.036z
			 M31.362,37.463c-0.503,0.649-1.624,2.339-2.702,5.63c-0.739,2.254-0.574,3.242-0.307,3.674c0.234,0.378,0.636,0.436,0.93,0.479
			c0.668,0.104,11.85,0.752,12.938,0.789c0.093-0.119,0.216-0.468,0.265-0.759c-0.007-1.989-0.527-6.076-4.014-10.171
			c-0.104-0.121-0.163-0.147-0.173-0.147c-0.093,0-0.344,0.172-0.546,0.311c-0.563,0.388-1.415,0.973-2.813,1.027
			C33.102,38.357,31.936,37.833,31.362,37.463z"/>
	</g>
	<path class="st0" d="M37.87,35.829c0,0,0.12,0.564,0.289,0.62"/>
	<path d="M47.693,30.854c0-8.939-3.831-13.851-6.876-15.914c-2.472-1.675-9.332-2.259-11.689-0.393
		c-2.245,1.778-3.344,4.421-4.128,5.698c-3.058,4.979-1.957,9.366-1.374,12.083c0.479,2.233,2.653,7.563,4.323,7.957
		s3.536-3.93,3.536-3.93c-4.617-0.59-5.403-8.251-5.501-8.939s-0.589-3.438,3.144-3.831c3.733-0.393,6.483-0.098,7.662,0.196
		s2.357,0.491,2.652,2.161c0.185,1.046,0.253,5.14,0.206,8.317l-1.778,1.502l0.436,0.771l1.129,0.624l0.115,0.03
		c-0.03,0.446-0.065,0.783-0.107,0.938c-0.294,1.081-0.295,2.161,0.589,2.161s3.635-1.376,5.697-3.046S47.693,34.686,47.693,30.854z
		"/>
	<path d="M11.271,15.424c0.035,0.211,0.014,0.408-0.061,0.59c-0.074,0.183-0.187,0.347-0.339,0.489
		c-0.152,0.143-0.339,0.263-0.561,0.362c-0.222,0.1-0.463,0.17-0.725,0.213l-2.946,0.479l-0.849-5.21l3.181-0.518
		c0.214-0.035,0.415-0.027,0.602,0.022c0.187,0.05,0.351,0.127,0.493,0.232c0.142,0.105,0.259,0.231,0.353,0.379
		c0.092,0.148,0.151,0.303,0.178,0.465c0.042,0.254,0.004,0.505-0.114,0.753c-0.117,0.248-0.31,0.448-0.576,0.602
		c0.368,0.031,0.673,0.146,0.917,0.344S11.217,15.092,11.271,15.424z M6.881,12.899l0.25,1.534l1.791-0.292
		c0.122-0.02,0.23-0.058,0.325-0.113c0.095-0.056,0.176-0.123,0.244-0.202c0.066-0.079,0.115-0.167,0.143-0.268
		c0.029-0.101,0.034-0.207,0.016-0.319c-0.037-0.225-0.143-0.397-0.316-0.518c-0.175-0.12-0.377-0.161-0.609-0.123L6.881,12.899z
		 M10.247,15.433c-0.018-0.107-0.056-0.207-0.115-0.297c-0.06-0.091-0.132-0.167-0.216-0.229c-0.085-0.062-0.182-0.106-0.294-0.133
		c-0.112-0.027-0.228-0.03-0.35-0.01l-2.034,0.331l0.259,1.592l1.973-0.321c0.127-0.021,0.243-0.061,0.346-0.12
		c0.103-0.06,0.19-0.131,0.26-0.215c0.069-0.084,0.119-0.178,0.15-0.281C10.258,15.646,10.264,15.541,10.247,15.433z"/>
	<path d="M12.692,14.596l-0.871-5.207l0.973-0.163l0.749,4.48l3.309-0.553l0.121,0.726L12.692,14.596z"/>
	<path d="M17.183,14.976l1.637-5.615l0.8-0.13l3.325,4.807l-1.034,0.168l-0.892-1.309l-2.381,0.388l-0.413,1.521L17.183,14.976z
		 M19.369,10.213l-0.656,2.435l2.016-0.329L19.369,10.213z"/>
</g>
<g id="Capa_3" class="st3">
	<path class="st2" d="M48.997,33.93c0.125-2.291,0.26-14.899-0.616-17.451c-0.874-2.553-3.409-2.787-3.662-2.81
		c-0.19-0.017-5.97-0.038-10.015-0.081c-0.141-2.231-0.616-6.332-1.285-7.352c-0.979-1.49-0.426-3.035-8.7-2.76
		c-10.168,0.338-9.005,2.413-9.444,3.481c-0.333,0.809-0.65,5.178-0.779,7.592c-4.909,0.378-9.108,0.751-9.762,0.905
		c-1.568,0.368-3.247,2.855-3.356,4.039c-0.108,1.184-0.841,20.301-0.483,22.893c0.36,2.593,1.75,3.229,4.425,3.817
		c2.674,0.587,29.689,0.766,34.824,0.214c5.134-0.552,6.808-2.273,7.414-3.325C48.166,42.039,48.87,36.22,48.997,33.93z
		 M18.631,11.273c0.062-0.676,0.373-1.871,0.373-1.871c1.041-2.036,5.524-2.654,8.001-2.369c1.623,0.188,2.879,0.957,3.506,2.463
		c0.404,0.968,1.055,3.67,0.697,4.038c-0.37,0.381-12.584,0.938-12.913,0.734C17.968,14.063,18.606,11.543,18.631,11.273z
		 M27.813,29.704c-0.818-0.568-3.081-0.75-4.457-0.143c-0.728,0.322-1.271,0.984-1.384,1.687c-0.064,0.4-0.015,0.996,0.584,1.533
		c0.12,0.107,0.129,0.293,0.021,0.411c-0.063,0.071-0.154,0.104-0.243,0.098c-0.061-0.006-0.119-0.031-0.168-0.074
		c-0.62-0.558-0.894-1.289-0.77-2.061c0.142-0.893,0.819-1.729,1.723-2.129c1.465-0.644,3.954-0.546,5.025,0.198
		c0.709,0.491,1.245,1.892,1.122,2.937c-0.072,0.637-0.381,1.092-0.868,1.285c-0.148,0.056-0.319-0.014-0.378-0.165
		c-0.059-0.149,0.014-0.319,0.165-0.379c0.284-0.111,0.454-0.385,0.504-0.808C28.786,31.262,28.353,30.077,27.813,29.704z
		 M26.777,40.438c-0.551,0.263-1.107,0.354-1.601,0.344c-0.678-0.013-1.25-0.216-1.554-0.424c-0.584-0.397-1.27-1.999-1.242-3.387
		c0.003-0.16,0.137-0.289,0.298-0.286c0.161,0.004,0.29,0.137,0.286,0.297c-0.026,1.267,0.635,2.653,0.989,2.895
		c0.341,0.232,1.461,0.565,2.573,0.034c0.821-0.389,0.814-2.153,0.742-2.802c-0.018-0.162,0.097-0.305,0.256-0.323
		c0.173-0.015,0.305,0.099,0.323,0.257C27.86,37.155,28.139,39.792,26.777,40.438z M46.187,30.249
		c-2.067,3.501-7.768,4.1-11.175,4.458L34.4,34.771c-3.208,0.354-20.029,0.658-23.374,0.425c-0.105-0.007-0.208-0.016-0.31-0.023
		c-3.078-0.283-4.431-1.47-5.167-2.117c-0.98-0.856-2.201-5.787-2.341-6.929C3.18,25.887,3.35,25.668,3.591,25.64
		c0.24-0.028,0.457,0.141,0.487,0.38c0.185,1.528,1.443,5.848,2.008,6.341c0.772,0.68,1.994,1.758,5.002,1.962
		c3.322,0.23,20.031-0.071,23.218-0.421l0.616-0.066c3.241-0.341,8.669-0.91,10.511-4.031c1.962-3.326,1.75-5.626,1.746-5.649
		c-0.024-0.239,0.148-0.455,0.389-0.481c0.245-0.024,0.455,0.146,0.48,0.386C48.061,24.164,48.31,26.648,46.187,30.249z"/>
</g>
<g id="Capa_4" class="st3">
	<path class="st2" d="M43.866,16.891c-1.919-1.991-3.288-2.737-3.144-4.33c0.145-1.593,0.203-9.152,0.175-9.647
		C40.868,2.42,41.181,1.31,39.43,1.393c-2.299,0.109-5.171,0.876-5.428,1.052s-0.587,0.68-0.512,2.868
		c0.074,2.187-1.726,0.545-3.092-0.861c-1.387-1.429-3.245-2.938-3.872-3.406c-0.323-0.241-1.22-1.288-3.201,0.057
		C21.345,2.446,8.903,16.029,7.487,17.959s-3.638,3.961-2.971,5.239c0.667,1.278,3.541,1.407,4.229,1.554
		c0.688,0.146,1.029,0.383,0.87,2.796c-0.159,2.413,0.477,18.188,0.447,19.798c-0.029,1.61,1.121,1.998,2.496,2.002
		c0.372,0.001,2.043-0.007,4.843-0.017c0.155-0.001,0.448-0.028,0.709-0.206s0.059-0.992,0.048-1.172
		c-0.145-2.402-0.26-4.91-0.171-6.561c0.147-2.731,1.2-7.007,2.687-8.248s4.336-2.265,7.143-0.944
		c2.807,1.319,3.744,3.483,4.678,5.844c0.733,1.853,0.791,7.717,0.781,10.15c-0.002,0.641-0.151,0.847,0.157,1.004
		c0.294,0.149,0.806,0.067,1.151,0.066c2.769-0.009,4.505-0.014,4.784-0.009c1.036,0.019,1.782-0.603,2.41-1.087
		c0.444-0.343,0.37-1.143,0.374-4.484c0.004-3.798-0.156-18.842-0.156-18.842s-0.428-1.779,0.73-2.219s2.673-1.447,2.918-2.248
		C45.89,19.574,45.787,18.882,43.866,16.891z M14.78,10.565c0.126-0.299,0.468-0.438,0.767-0.313
		c0.756,0.32,2.763,0.411,4.195-0.797c1.188-1.002,2.091-3.481,2.338-4.352c0.067-0.237,0.276-0.407,0.522-0.424
		c0.239-0.022,0.476,0.122,0.576,0.347c0.686,1.545,2.208,4.142,3.37,4.533c1.702,0.571,4.525,0.313,5.263-1.406
		c0.125-0.299,0.471-0.436,0.769-0.309c0.297,0.127,0.435,0.47,0.308,0.768c-1.051,2.46-4.571,2.776-6.711,2.057
		c-1.393-0.467-2.693-2.509-3.438-3.894c-0.449,1.135-1.209,2.706-2.241,3.576c-1.145,0.965-2.608,1.293-3.804,1.272
		c-0.639-0.012-1.203-0.123-1.6-0.291C14.795,11.207,14.654,10.863,14.78,10.565z M10.748,16.285
		c1.299,0.281,3.916-0.622,4.836-1.669c0.829-0.944,0.877-1.368,0.877-1.373c-0.043-0.296,0.147-0.541,0.437-0.614
		c0.291-0.073,0.592,0.12,0.696,0.4c0.039,0.103,1.017,2.569,3.951,2.464c3.294-0.128,5.772-2.255,6.178-3.359
		c0.081-0.218,0.282-0.367,0.513-0.382c0.23-0.017,0.449,0.107,0.557,0.314c0.027,0.049,0.796,1.379,3.529,1.771
		c2.575,0.376,4.6-0.63,4.94-1.03c0.066-0.255,0.301-0.44,0.576-0.436c0.324,0.006,0.58,0.272,0.574,0.596
		c-0.005,0.274-0.154,0.532-0.459,0.791c-0.804,0.685-3.083,1.625-5.8,1.239c-2.006-0.289-3.168-1.052-3.789-1.639
		c-1.088,1.485-3.641,3.184-6.774,3.306c-2.206,0.088-3.675-1.044-4.473-2.117c-0.164,0.246-0.377,0.526-0.655,0.842
		c-1.048,1.194-3.531,2.147-5.274,2.116c-0.249-0.004-0.48-0.029-0.692-0.076c-0.316-0.069-0.517-0.381-0.447-0.697
		C10.12,16.416,10.431,16.212,10.748,16.285z M35.582,34.586c-1.67-0.03-3.001-1.321-2.973-2.886
		c0.028-1.563,1.404-2.804,3.075-2.773c1.673,0.029,3.004,1.32,2.976,2.883C38.632,33.374,37.255,34.616,35.582,34.586z
		 M40.141,19.217c-4.777,1.442-7.624-0.621-8.703-1.674c-1.748,2.107-2.592,2.935-5.093,3.269c-2.437,0.329-4.401-0.861-5.324-1.567
		c-1.001,1.249-3.426,2.233-5.873,2.282c-0.118,0.002-0.236,0.002-0.351,0c-2.825-0.051-4.989-1.397-5.7-2.757
		c-0.149-0.287-0.038-0.64,0.249-0.79c0.286-0.15,0.64-0.039,0.79,0.248c0.477,0.915,2.347,2.181,4.988,2.128
		c2.759-0.055,4.912-1.333,5.182-2.188c0.062-0.195,0.221-0.343,0.418-0.392c0.198-0.049,0.409,0.01,0.554,0.153
		c0.021,0.021,2.145,2.09,4.911,1.723c2.168-0.29,2.685-0.838,4.777-3.376c0.114-0.14,0.304-0.207,0.468-0.213
		c0.18,0.005,0.348,0.093,0.454,0.238c0.104,0.139,2.617,3.396,7.912,1.795c0.308-0.092,0.637,0.082,0.729,0.391
		C40.624,18.797,40.448,19.123,40.141,19.217z"/>
</g>
</svg>
